<svg viewBox="0 0 500 133" fill="none" xmlns="http://www.w3.org/2000/svg">
<path d="M311.255 50.0231C304.768 50.0231 298.547 52.7207 293.961 57.5225C289.375 62.3241 286.797 68.8369 286.797 75.6275C286.797 82.6061 289.461 88.9303 293.789 93.5504C296.065 95.9864 298.781 97.9206 301.781 99.2399C304.781 100.559 308.003 101.236 311.255 101.232C314.466 101.232 317.646 100.569 320.612 99.2827C323.581 97.996 326.276 96.11 328.547 93.7324C330.818 91.3548 332.62 88.5324 333.849 85.4259C335.078 82.3192 335.711 78.9898 335.711 75.6275C335.711 72.2652 335.078 68.9357 333.849 65.829C332.62 62.7226 330.818 59.9001 328.547 57.5225C326.276 55.1449 323.581 53.2589 320.612 51.9722C317.646 50.6855 314.466 50.0231 311.255 50.0231ZM294.065 101.232C292.568 100.128 291.182 98.8952 289.906 97.5333C284.422 91.6884 281.354 83.8205 281.362 75.6275C281.362 58.3445 294.747 44.3333 311.255 44.3333C327.763 44.3333 341.146 58.3445 341.146 75.6275C341.146 92.9104 327.763 106.922 311.255 106.922H278.646V101.232H294.065ZM311.255 58.5578C311.974 58.5578 312.667 58.8577 313.174 59.3913C313.685 59.9249 313.971 60.6483 313.971 61.403C313.971 62.1574 313.685 62.8808 313.174 63.4144C312.667 63.948 311.974 64.2479 311.255 64.2479C310.534 64.2479 309.844 63.948 309.333 63.4144C308.823 62.8808 308.536 62.1574 308.536 61.403C308.536 60.6483 308.823 59.9249 309.333 59.3913C309.844 58.8577 310.534 58.5578 311.255 58.5578ZM319.406 61.403C319.406 59.1394 318.547 56.9686 317.018 55.3679C315.49 53.7672 313.417 52.868 311.255 52.868C309.094 52.868 307.018 53.7672 305.49 55.3679C303.961 56.9686 303.102 59.1394 303.102 61.403C303.102 63.6663 303.961 65.8374 305.49 67.4378C307.018 69.0385 309.094 69.9377 311.255 69.9377C313.417 69.9377 315.49 69.0385 317.018 67.4378C318.547 65.8374 319.406 63.6663 319.406 61.403ZM324.841 72.7826C325.563 72.7826 326.253 73.0822 326.763 73.6158C327.273 74.1493 327.56 74.873 327.56 75.6275C327.56 76.3819 327.273 77.1056 326.763 77.6392C326.253 78.1727 325.563 78.4724 324.841 78.4724C324.122 78.4724 323.43 78.1727 322.919 77.6392C322.411 77.1056 322.125 76.3819 322.125 75.6275C322.125 74.873 322.411 74.1493 322.919 73.6158C323.43 73.0822 324.122 72.7826 324.841 72.7826ZM332.995 75.6275C332.995 74.5066 332.784 73.3967 332.372 72.3614C331.964 71.3258 331.362 70.3849 330.607 69.5927C329.849 68.7999 328.951 68.1711 327.961 67.7424C326.971 67.3134 325.911 67.0928 324.841 67.0928C323.771 67.0928 322.711 67.3134 321.721 67.7424C320.732 68.1711 319.836 68.7999 319.076 69.5927C318.32 70.3849 317.719 71.3258 317.31 72.3614C316.901 73.3967 316.69 74.5066 316.69 75.6275C316.69 77.8911 317.547 80.0618 319.076 81.6623C320.607 83.263 322.68 84.1622 324.841 84.1622C327.003 84.1622 329.076 83.263 330.607 81.6623C332.135 80.0618 332.995 77.8911 332.995 75.6275ZM297.667 72.7826C298.388 72.7826 299.078 73.0822 299.589 73.6158C300.099 74.1493 300.385 74.873 300.385 75.6275C300.385 76.3819 300.099 77.1056 299.589 77.6392C299.078 78.1727 298.388 78.4724 297.667 78.4724C296.948 78.4724 296.255 78.1727 295.747 77.6392C295.237 77.1056 294.951 76.3819 294.951 75.6275C294.951 74.873 295.237 74.1493 295.747 73.6158C296.255 73.0822 296.948 72.7826 297.667 72.7826ZM305.82 75.6275C305.82 73.3639 304.961 71.1931 303.432 69.5927C301.904 67.992 299.828 67.0928 297.667 67.0928C295.505 67.0928 293.432 67.992 291.904 69.5927C290.375 71.1931 289.516 73.3639 289.516 75.6275C289.516 77.8911 290.375 80.0618 291.904 81.6623C293.432 83.263 295.505 84.1622 297.667 84.1622C299.828 84.1622 301.904 83.263 303.432 81.6623C304.961 80.0618 305.82 77.8911 305.82 75.6275ZM311.255 87.0071C311.974 87.0071 312.667 87.3069 313.174 87.8405C313.685 88.3741 313.971 89.0975 313.971 89.8519C313.971 90.6066 313.685 91.3301 313.174 91.8636C312.667 92.3972 311.974 92.6971 311.255 92.6971C310.534 92.6971 309.844 92.3972 309.333 91.8636C308.823 91.3301 308.536 90.6066 308.536 89.8519C308.536 89.0975 308.823 88.3741 309.333 87.8405C309.844 87.3069 310.534 87.0071 311.255 87.0071ZM319.406 89.8519C319.406 87.5886 318.547 85.4176 317.018 83.8171C315.49 82.2164 313.417 81.3173 311.255 81.3173C309.094 81.3173 307.018 82.2164 305.49 83.8171C303.961 85.4176 303.102 87.5886 303.102 89.8519C303.102 92.1155 303.961 94.2863 305.49 95.887C307.018 97.4877 309.094 98.3869 311.255 98.3869C313.417 98.3869 315.49 97.4877 317.018 95.887C318.547 94.2863 319.406 92.1155 319.406 89.8519Z" fill="#9D06FF"/>
<path d="M326.23 115.461H279.355C278.225 115.461 277.142 115.012 276.342 114.211C275.543 113.411 275.095 112.326 275.095 111.194C275.095 110.062 275.543 108.977 276.342 108.176C277.142 107.376 278.225 106.927 279.355 106.927H292.139C292.275 106.926 292.407 106.889 292.522 106.819C292.637 106.748 292.73 106.648 292.793 106.528C292.871 106.415 292.91 106.281 292.91 106.144C292.91 106.007 292.871 105.873 292.793 105.76C291.712 104.472 290.762 103.081 289.952 101.607C289.887 101.492 289.79 101.397 289.676 101.332C289.561 101.267 289.431 101.234 289.298 101.237H279.355C276.72 101.237 274.189 102.286 272.324 104.153C270.459 106.02 269.413 108.553 269.413 111.194C269.413 113.835 270.459 116.367 272.324 118.235C274.189 120.102 276.72 121.151 279.355 121.151H326.23C326.983 121.151 327.707 121.451 328.238 121.984C328.772 122.518 329.071 123.241 329.071 123.996C329.071 124.75 328.772 125.474 328.238 126.008C327.707 126.541 326.983 126.841 326.23 126.841H300.663C299.91 126.841 299.186 127.14 298.655 127.674C298.121 128.208 297.821 128.931 297.821 129.686C297.821 130.44 298.121 131.164 298.655 131.697C299.186 132.231 299.91 132.531 300.663 132.531H326.23C328.491 132.531 330.657 131.631 332.256 130.031C333.855 128.43 334.754 126.259 334.754 123.996C334.754 121.732 333.855 119.562 332.256 117.961C330.657 116.36 328.491 115.461 326.23 115.461Z" fill="#9D06FF"/>
<path d="M79.2708 44.7506C83.7154 44.7506 87.6388 45.6547 91.0417 47.4628C94.5138 49.2014 97.2221 51.9136 99.1667 55.5992C101.18 59.2155 102.188 63.8747 102.188 69.5773V101.706H85.9375V72.0808C85.9375 67.5606 85 64.2226 83.125 62.0667C81.25 59.9108 78.6112 58.833 75.2083 58.833C72.8471 58.833 70.7292 59.3892 68.8542 60.502C66.9792 61.5451 65.5208 63.1445 64.4792 65.3004C63.4375 67.4563 62.9167 70.2032 62.9167 73.5412V101.706H46.6667V72.0808C46.6667 67.5606 45.7292 64.2226 43.8542 62.0667C42.0487 59.9108 39.4445 58.833 36.0417 58.833C33.6805 58.833 31.5625 59.3892 29.6875 60.502C27.8125 61.5451 26.3542 63.1445 25.3125 65.3004C24.2708 67.4563 23.75 70.2032 23.75 73.5412V101.706H7.5V45.5851H23.0208V60.9192L20.1042 56.4337C22.0486 52.6088 24.7917 49.723 28.3333 47.7757C31.9445 45.7591 36.0417 44.7506 40.625 44.7506C45.7638 44.7506 50.243 46.072 54.0625 48.7145C57.9513 51.2877 60.5208 55.2516 61.7708 60.6063L56.0417 59.0416C57.9167 54.6604 60.9029 51.1834 65 48.6102C69.1667 46.037 73.9237 44.7506 79.2708 44.7506ZM122.819 122.777C119.902 122.777 117.02 122.325 114.173 121.421C111.326 120.517 108.999 119.265 107.194 117.666L113.132 106.087C114.382 107.2 115.805 108.069 117.402 108.695C119.069 109.321 120.701 109.634 122.298 109.634C124.59 109.634 126.395 109.077 127.715 107.965C129.104 106.922 130.354 105.148 131.465 102.645L134.382 95.76L135.632 93.9867L155.736 45.5851H171.361L146.048 105.148C144.243 109.668 142.159 113.215 139.798 115.788C137.507 118.361 134.937 120.169 132.09 121.213C129.312 122.256 126.222 122.777 122.819 122.777ZM132.402 103.896L107.402 45.5851H124.173L143.548 92.5263L132.402 103.896ZM249.763 44.7506C254.207 44.7506 258.13 45.6547 261.534 47.4628C265.005 49.2014 267.714 51.9136 269.659 55.5992C271.672 59.2155 272.68 63.8747 272.68 69.5773V101.706H256.429V72.0808C256.429 67.5606 255.492 64.2226 253.617 62.0667C251.742 59.9108 249.103 58.833 245.7 58.833C243.339 58.833 241.221 59.3892 239.346 60.502C237.471 61.5451 236.013 63.1445 234.971 65.3004C233.929 67.4563 233.408 70.2032 233.408 73.5412V101.706H217.158V72.0808C217.158 67.5606 216.221 64.2226 214.346 62.0667C212.54 59.9108 209.936 58.833 206.533 58.833C204.172 58.833 202.054 59.3892 200.179 60.502C198.304 61.5451 196.846 63.1445 195.804 65.3004C194.763 67.4563 194.242 70.2032 194.242 73.5412V101.706H177.992V45.5851H193.513V60.9192L190.596 56.4337C192.54 52.6088 195.283 49.723 198.825 47.7757C202.436 45.7591 206.533 44.7506 211.117 44.7506C216.255 44.7506 220.735 46.072 224.554 48.7145C228.443 51.2877 231.013 55.2516 232.263 60.6063L226.533 59.0416C228.408 54.6604 231.394 51.1834 235.492 48.6102C239.658 46.037 244.415 44.7506 249.763 44.7506ZM361.453 101.706L337.911 45.5851H354.682L374.266 93.8824H365.932L386.245 45.5851H401.87L378.224 101.706H361.453ZM408.5 101.706V45.5851H424.75V101.706H408.5ZM416.625 37.7616C413.641 37.7616 411.208 36.8924 409.333 35.1537C407.458 33.4151 406.521 31.2594 406.521 28.6863C406.521 26.1131 407.458 23.9574 409.333 22.2188C411.208 20.4803 413.641 19.611 416.625 19.611C419.612 19.611 422.042 20.4455 423.917 22.1145C425.792 23.714 426.729 25.8003 426.729 28.3733C426.729 31.0855 425.792 33.3457 423.917 35.1537C422.112 36.8924 419.682 37.7616 416.625 37.7616ZM467.646 102.54C461.255 102.54 455.63 101.289 450.771 98.7851C445.979 96.2816 442.263 92.8739 439.625 88.5624C436.984 84.1812 435.667 79.2088 435.667 73.6455C435.667 68.0126 436.951 63.0402 439.521 58.7286C442.159 54.3475 445.734 50.9398 450.25 48.5059C454.763 46.0024 459.867 44.7506 465.563 44.7506C471.047 44.7506 475.979 45.9327 480.354 48.2973C484.797 50.5922 488.305 53.9302 490.875 58.3114C493.443 62.6229 494.729 67.8039 494.729 73.8541C494.729 74.48 494.693 75.2102 494.625 76.0447C494.555 76.8096 494.484 77.5398 494.417 78.2353H448.896V68.7428H485.875L479.625 71.5592C479.625 68.6384 479.034 66.1002 477.854 63.9443C476.672 61.7884 475.042 60.1194 472.958 58.9373C470.875 57.6855 468.443 57.0596 465.667 57.0596C462.888 57.0596 460.422 57.6855 458.271 58.9373C456.187 60.1194 454.555 61.8234 453.375 64.0486C452.193 66.2045 451.604 68.7774 451.604 71.7679V74.2714C451.604 77.3312 452.263 80.0433 453.583 82.4079C454.971 84.7028 456.88 86.4761 459.313 87.7279C461.813 88.91 464.729 89.5012 468.062 89.5012C471.047 89.5012 473.651 89.0492 475.875 88.1451C478.167 87.241 480.25 85.8849 482.125 84.0769L490.771 93.4651C488.201 96.3859 484.971 98.6461 481.083 100.245C477.193 101.776 472.714 102.54 467.646 102.54Z" fill="white"/>
</svg>
