<svg width="264" height="70" viewBox="0 0 264 70" fill="none" xmlns="http://www.w3.org/2000/svg">
<path d="M164.343 26.328C160.918 26.328 157.633 27.7477 155.211 30.275C152.79 32.8021 151.429 36.23 151.429 39.8039C151.429 43.4769 152.835 46.8054 155.121 49.237C156.322 50.5191 157.757 51.5372 159.341 52.2315C160.925 52.9259 162.625 53.2824 164.343 53.2799C166.038 53.2799 167.717 52.9313 169.283 52.2541C170.851 51.5768 172.274 50.5842 173.473 49.3329C174.672 48.0815 175.623 46.596 176.272 44.961C176.921 43.3259 177.255 41.5736 177.255 39.8039C177.255 38.0343 176.921 36.282 176.272 34.6469C175.623 33.0119 174.672 31.5264 173.473 30.275C172.274 29.0237 170.851 28.031 169.283 27.3538C167.717 26.6766 166.038 26.328 164.343 26.328ZM155.266 53.2799C154.476 52.6989 153.744 52.0501 153.07 51.3333C150.175 48.2571 148.555 44.1161 148.559 39.8039C148.559 30.7076 155.627 23.3333 164.343 23.3333C173.059 23.3333 180.125 30.7076 180.125 39.8039C180.125 48.9002 173.059 56.2745 164.343 56.2745H147.125V53.2799H155.266ZM164.343 30.8199C164.722 30.8199 165.088 30.9778 165.356 31.2586C165.626 31.5394 165.777 31.9201 165.777 32.3174C165.777 32.7144 165.626 33.0952 165.356 33.376C165.088 33.6568 164.722 33.8147 164.343 33.8147C163.962 33.8147 163.597 33.6568 163.328 33.376C163.058 33.0952 162.907 32.7144 162.907 32.3174C162.907 31.9201 163.058 31.5394 163.328 31.2586C163.597 30.9778 163.962 30.8199 164.343 30.8199ZM168.647 32.3174C168.647 31.126 168.193 29.9835 167.386 29.141C166.579 28.2985 165.484 27.8253 164.343 27.8253C163.202 27.8253 162.106 28.2985 161.298 29.141C160.491 29.9835 160.038 31.126 160.038 32.3174C160.038 33.5086 160.491 34.6512 161.298 35.4936C162.106 36.336 163.202 36.8093 164.343 36.8093C165.484 36.8093 166.579 36.336 167.386 35.4936C168.193 34.6512 168.647 33.5086 168.647 32.3174ZM171.516 38.3066C171.897 38.3066 172.261 38.4643 172.531 38.7451C172.8 39.026 172.952 39.4069 172.952 39.8039C172.952 40.201 172.8 40.5819 172.531 40.8627C172.261 41.1435 171.897 41.3012 171.516 41.3012C171.137 41.3012 170.771 41.1435 170.501 40.8627C170.233 40.5819 170.082 40.201 170.082 39.8039C170.082 39.4069 170.233 39.026 170.501 38.7451C170.771 38.4643 171.137 38.3066 171.516 38.3066ZM175.821 39.8039C175.821 39.214 175.71 38.6299 175.493 38.085C175.277 37.5399 174.959 37.0447 174.56 36.6277C174.16 36.2105 173.686 35.8795 173.163 35.6539C172.641 35.4281 172.081 35.312 171.516 35.312C170.951 35.312 170.391 35.4281 169.869 35.6539C169.346 35.8795 168.873 36.2105 168.472 36.6277C168.073 37.0447 167.756 37.5399 167.54 38.085C167.324 38.6299 167.212 39.214 167.212 39.8039C167.212 40.9953 167.665 42.1378 168.472 42.9801C169.28 43.8226 170.375 44.2959 171.516 44.2959C172.657 44.2959 173.752 43.8226 174.56 42.9801C175.368 42.1378 175.821 40.9953 175.821 39.8039ZM157.168 38.3066C157.549 38.3066 157.913 38.4643 158.183 38.7451C158.452 39.026 158.603 39.4069 158.603 39.8039C158.603 40.201 158.452 40.5819 158.183 40.8627C157.913 41.1435 157.549 41.3012 157.168 41.3012C156.789 41.3012 156.423 41.1435 156.155 40.8627C155.885 40.5819 155.734 40.201 155.734 39.8039C155.734 39.4069 155.885 39.026 156.155 38.7451C156.423 38.4643 156.789 38.3066 157.168 38.3066ZM161.473 39.8039C161.473 38.6126 161.019 37.47 160.212 36.6277C159.405 35.7852 158.309 35.312 157.168 35.312C156.027 35.312 154.932 35.7852 154.125 36.6277C153.318 37.47 152.864 38.6126 152.864 39.8039C152.864 40.9953 153.318 42.1378 154.125 42.9801C154.932 43.8226 156.027 44.2959 157.168 44.2959C158.309 44.2959 159.405 43.8226 160.212 42.9801C161.019 42.1378 161.473 40.9953 161.473 39.8039ZM164.343 45.7932C164.722 45.7932 165.088 45.951 165.356 46.2319C165.626 46.5127 165.777 46.8934 165.777 47.2905C165.777 47.6877 165.626 48.0685 165.356 48.3493C165.088 48.6301 164.722 48.788 164.343 48.788C163.962 48.788 163.597 48.6301 163.328 48.3493C163.058 48.0685 162.907 47.6877 162.907 47.2905C162.907 46.8934 163.058 46.5127 163.328 46.2319C163.597 45.951 163.962 45.7932 164.343 45.7932ZM168.647 47.2905C168.647 46.0993 168.193 44.9566 167.386 44.1143C166.579 43.2718 165.484 42.7986 164.343 42.7986C163.202 42.7986 162.106 43.2718 161.298 44.1143C160.491 44.9566 160.038 46.0993 160.038 47.2905C160.038 48.4819 160.491 49.6244 161.298 50.4669C162.106 51.3093 163.202 51.7826 164.343 51.7826C165.484 51.7826 166.579 51.3093 167.386 50.4669C168.193 49.6244 168.647 48.4819 168.647 47.2905Z" fill="#9D06FF"/>
<path d="M172.25 60.7691H147.5C146.903 60.7691 146.331 60.5324 145.909 60.1112C145.487 59.69 145.25 59.1187 145.25 58.523C145.25 57.9273 145.487 57.3561 145.909 56.9348C146.331 56.5137 146.903 56.2771 147.5 56.2771H154.25C154.321 56.2768 154.391 56.2572 154.452 56.2203C154.512 56.1834 154.562 56.1305 154.595 56.0674C154.636 56.0078 154.656 55.9374 154.656 55.8653C154.656 55.7932 154.636 55.7227 154.595 55.6632C154.024 54.9854 153.522 54.2532 153.094 53.4771C153.06 53.4169 153.009 53.367 152.949 53.3327C152.888 53.2985 152.819 53.2811 152.749 53.2825H147.5C146.108 53.2825 144.772 53.8345 143.787 54.8174C142.803 55.8002 142.25 57.1332 142.25 58.523C142.25 59.913 142.803 61.2459 143.787 62.2288C144.772 63.2115 146.108 63.7637 147.5 63.7637H172.25C172.647 63.7637 173.029 63.9214 173.31 64.2022C173.592 64.483 173.75 64.8639 173.75 65.261C173.75 65.6581 173.592 66.039 173.31 66.3198C173.029 66.6006 172.647 66.7583 172.25 66.7583H158.75C158.352 66.7583 157.97 66.916 157.69 67.1968C157.408 67.4777 157.25 67.8585 157.25 68.2556C157.25 68.6527 157.408 69.0336 157.69 69.3144C157.97 69.5952 158.352 69.7529 158.75 69.7529H172.25C173.443 69.7529 174.587 69.2797 175.431 68.4373C176.276 67.5949 176.75 66.4524 176.75 65.261C176.75 64.0696 176.276 62.9271 175.431 62.0846C174.587 61.2423 173.443 60.7691 172.25 60.7691Z" fill="#9D06FF"/>
<path d="M41.855 23.5529C44.2017 23.5529 46.2733 24.0288 48.07 24.9804C49.9033 25.8955 51.3333 27.3229 52.36 29.2627C53.4233 31.1661 53.955 33.6183 53.955 36.6196V53.5294H45.375V37.9372C45.375 35.5582 44.88 33.8013 43.89 32.6667C42.9 31.532 41.5067 30.9647 39.71 30.9647C38.4633 30.9647 37.345 31.2575 36.355 31.8431C35.365 32.3922 34.595 33.2339 34.045 34.3686C33.495 35.5033 33.22 36.949 33.22 38.7059V53.5294H24.64V37.9372C24.64 35.5582 24.145 33.8013 23.155 32.6667C22.2017 31.532 20.8267 30.9647 19.03 30.9647C17.7833 30.9647 16.665 31.2575 15.675 31.8431C14.685 32.3922 13.915 33.2339 13.365 34.3686C12.815 35.5033 12.54 36.949 12.54 38.7059V53.5294H3.95999V23.9922H12.155V32.0627L10.615 29.702C11.6417 27.6888 13.09 26.17 14.96 25.1451C16.8667 24.0837 19.03 23.5529 21.45 23.5529C24.1633 23.5529 26.5283 24.2484 28.545 25.6392C30.5983 26.9935 31.955 29.0798 32.615 31.898L29.59 31.0745C30.58 28.7686 32.1567 26.9386 34.32 25.5843C36.52 24.23 39.0317 23.5529 41.855 23.5529ZM64.8484 64.6196C63.3084 64.6196 61.7867 64.3817 60.2834 63.9059C58.7801 63.43 57.5517 62.7712 56.5984 61.9294L59.7334 55.8353C60.3934 56.421 61.1451 56.8784 61.9884 57.2078C62.8684 57.5373 63.7301 57.702 64.5734 57.702C65.7834 57.702 66.7367 57.4092 67.4334 56.8235C68.1667 56.2745 68.8267 55.3412 69.4134 54.0235L70.9534 50.4L71.6134 49.4667L82.2284 23.9922H90.4784L77.1134 55.3412C76.1601 57.7202 75.0601 59.5869 73.8134 60.9412C72.6034 62.2955 71.2467 63.2471 69.7434 63.7961C68.2767 64.3451 66.6451 64.6196 64.8484 64.6196ZM69.9084 54.6823L56.7084 23.9922H65.5634L75.7934 48.698L69.9084 54.6823ZM131.875 23.5529C134.221 23.5529 136.293 24.0288 138.09 24.9804C139.923 25.8955 141.353 27.3229 142.38 29.2627C143.443 31.1661 143.975 33.6183 143.975 36.6196V53.5294H135.395V37.9372C135.395 35.5582 134.9 33.8013 133.91 32.6667C132.92 31.532 131.526 30.9647 129.73 30.9647C128.483 30.9647 127.365 31.2575 126.375 31.8431C125.385 32.3922 124.615 33.2339 124.065 34.3686C123.515 35.5033 123.24 36.949 123.24 38.7059V53.5294H114.66V37.9372C114.66 35.5582 114.165 33.8013 113.175 32.6667C112.221 31.532 110.846 30.9647 109.05 30.9647C107.803 30.9647 106.685 31.2575 105.695 31.8431C104.705 32.3922 103.935 33.2339 103.385 34.3686C102.835 35.5033 102.56 36.949 102.56 38.7059V53.5294H93.9796V23.9922H102.175V32.0627L100.635 29.702C101.661 27.6888 103.11 26.17 104.98 25.1451C106.886 24.0837 109.05 23.5529 111.47 23.5529C114.183 23.5529 116.548 24.2484 118.565 25.6392C120.618 26.9935 121.975 29.0798 122.635 31.898L119.61 31.0745C120.6 28.7686 122.176 26.9386 124.34 25.5843C126.54 24.23 129.051 23.5529 131.875 23.5529ZM190.847 53.5294L178.417 23.9922H187.272L197.612 49.4118H193.212L203.937 23.9922H212.187L199.702 53.5294H190.847ZM215.688 53.5294V23.9922H224.268V53.5294H215.688ZM219.978 19.8745C218.402 19.8745 217.118 19.417 216.128 18.502C215.138 17.5869 214.643 16.4523 214.643 15.098C214.643 13.7437 215.138 12.6092 216.128 11.6941C217.118 10.7791 218.402 10.3216 219.978 10.3216C221.555 10.3216 222.838 10.7608 223.828 11.6392C224.818 12.481 225.313 13.5791 225.313 14.9333C225.313 16.3608 224.818 17.5504 223.828 18.502C222.875 19.417 221.592 19.8745 219.978 19.8745ZM246.917 53.9686C243.543 53.9686 240.573 53.3098 238.007 51.9922C235.477 50.6745 233.515 48.881 232.122 46.6118C230.728 44.3059 230.032 41.6888 230.032 38.7608C230.032 35.7961 230.71 33.179 232.067 30.9098C233.46 28.6039 235.348 26.8104 237.732 25.5294C240.115 24.2118 242.81 23.5529 245.817 23.5529C248.713 23.5529 251.317 24.1751 253.627 25.4196C255.973 26.6274 257.825 28.3843 259.182 30.6902C260.538 32.9594 261.217 35.6863 261.217 38.8706C261.217 39.2 261.198 39.5843 261.162 40.0235C261.125 40.4261 261.088 40.8104 261.052 41.1765H237.017V36.1804H256.542L253.242 37.6627C253.242 36.1255 252.93 34.7896 252.307 33.6549C251.683 32.5202 250.822 31.6418 249.722 31.0196C248.622 30.3608 247.338 30.0314 245.872 30.0314C244.405 30.0314 243.103 30.3608 241.967 31.0196C240.867 31.6418 240.005 32.5386 239.382 33.7098C238.758 34.8445 238.447 36.1986 238.447 37.7725V39.0902C238.447 40.7006 238.795 42.1281 239.492 43.3725C240.225 44.5804 241.233 45.5137 242.517 46.1725C243.837 46.7947 245.377 47.1059 247.137 47.1059C248.713 47.1059 250.088 46.868 251.262 46.3922C252.472 45.9163 253.572 45.2026 254.562 44.251L259.127 49.1922C257.77 50.7294 256.065 51.919 254.012 52.7608C251.958 53.5661 249.593 53.9686 246.917 53.9686Z" fill="white"/>
</svg>
